# xmcd
#
# Track frame offsets:
#	150
#	21002
#	36154
#	62858
#	84190
#	105485
#	121429
#	142814
#	157781
#	176015
#	194865
#	217480
#	234439
#	252784
#	274278
#	290705
#
# Disc length: 4154 seconds
#
# Revision: 0
# Processed by: cddbd v1.4PL0 Copyright (c) Steve Scherf et al.
# Submitted via: dBpowerAMP V4.0
#
DISCID=eb103810
DTITLE=Lucinda Williams - Greatest Hits
DYEAR=1900
DGENRE=Country
TTITLE0=Right In Time
TTITLE1=Drunken Angel
TTITLE2=Essence
TTITLE3=2 Kool 2 Be Forgotten
TTITLE4=Righteously
TTITLE5=Metal Firecracker
TTITLE6=Real Live Bleeding Fingers and Broken Guitar Strings
TTITLE7=Steal Your Love
TTITLE8=Joy
TTITLE9=Still I Long for Your Kiss
TTITLE10=Those Three Days
TTITLE11=Changed the Locks
TTITLE12=Lonely Girls
TTITLE13=Car Wheels on a Gravel Road
TTITLE14=Sweet Side
TTITLE15=American Dream
EXTD=
EXTT0=
EXTT1=
EXTT2=
EXTT3=
EXTT4=
EXTT5=
EXTT6=
EXTT7=
EXTT8=
EXTT9=
EXTT10=
EXTT11=
EXTT12=
EXTT13=
EXTT14=
EXTT15=
PLAYORDER=
